<?xml version="1.0" standalone="no"?>
<!DOCTYPE svg PUBLIC "-//W3C//DTD SVG 20010904//EN"
 "http://www.w3.org/TR/2001/REC-SVG-20010904/DTD/svg10.dtd">
<svg version="1.0" xmlns="http://www.w3.org/2000/svg"
 width="1280.000000pt" height="1280.000000pt" viewBox="0 0 1280.000000 1280.000000"
 preserveAspectRatio="xMidYMid meet">
<metadata>
Created by potrace 1.15, written by Peter Selinger 2001-2017
</metadata>
<g transform="translate(0.000000,1280.000000) scale(0.100000,-0.100000)"
fill="#BF35B6" stroke="none">
<path d="M6095 12794 c-1613 -86 -3089 -740 -4219 -1870 -1071 -1071 -1705
-2428 -1853 -3969 -24 -252 -24 -858 0 -1110 148 -1541 782 -2898 1853 -3969
1071 -1071 2428 -1705 3969 -1853 252 -24 858 -24 1110 0 1541 148 2898 782
3969 1853 1071 1071 1705 2428 1853 3969 24 252 24 858 0 1110 -148 1540 -780
2894 -1852 3968 -1064 1067 -2442 1711 -3960 1852 -162 15 -716 27 -870 19z
m770 -1020 c998 -82 1971 -453 2770 -1057 77 -58 150 -114 162 -124 l23 -18
-3797 -3798 -3798 -3797 -18 23 c-691 866 -1084 1841 -1182 2932 -32 351 -18
873 31 1215 147 1013 555 1933 1201 2705 864 1034 2065 1702 3398 1889 386 54
789 64 1210 30z m3800 -2069 c575 -739 952 -1634 1080 -2564 64 -465 63 -1047
-1 -1491 -147 -1013 -555 -1933 -1201 -2705 -863 -1034 -2051 -1695 -3393
-1889 -444 -64 -1056 -64 -1500 0 -930 135 -1787 492 -2514 1048 -65 50 -127
98 -137 106 -18 14 205 239 3774 3811 2085 2087 3795 3795 3799 3795 4 -1 46
-50 93 -111z"/>
</g>
</svg>
